# xmcd
#
# Track frame offsets:
#	150
#	20773
#	41005
#	58747
#	79392
#	99233
#	118602
#	138088
#	166473
#	197396
#	218743
#	238370
#	259664
#	274280
#	301365
#	325560
#
# Disc length: 4562 seconds
#
# Revision: 3
# Processed by: cddbd v1.5.2PL0 Copyright (c) Steve Scherf et al.
# Submitted via: audiograbber 1.83.01
#
DISCID=e111d010
DTITLE=Bob Dylan - The Bootleg Series Vol. 13 1979-1981 Deluxe Edition: Trouble
DTITLE=No More [CD 2) - Live
DYEAR=2017
DGENRE=Rock
TTITLE0=Slow Train [live, London, England - June 29, 1981]
TTITLE1=Ain't Gonna Go To Hell For Anybody [live, unreleased song, Montreal, Ca
TTITLE1=nada - Apr. 24, 1980]
TTITLE2=Gotta Serve Somebody [live, Bad Segeberg Germany - July 15, 1981]
TTITLE3=Ain't No Man Righteous, No Not One [live, unreleased song, San Francisc
TTITLE3=o, CA - Nov. 16, 1979]
TTITLE4=Saving Grace [live, San Francisco, CA - Nov. 6, 1979]
TTITLE5=Blessed Is The Name [live, Santa Monica, CA - Nov. 20, 1979]
TTITLE6=Solid Rock [live, Philadelphia, PA - Oct. 23, 1981]
TTITLE7=Are You Ready? [live, Buffalo, NY - Apr. 30, 1980]
TTITLE8=Pressing On [live, San Francisco, CA - Nov. 6, 1979]
TTITLE9=Shot Of Love [live, Avingon, France - July 25, 1981]
TTITLE10=Dead Man, Dead Man [live, Toulouse, France - June 21, 1981]
TTITLE11=Watered-Down Love [live, Detroit, MI - June 12, 1981]
TTITLE12=In The Summertime [live, Boston, MA - Oct. 21, 1981]
TTITLE13=The Groom's Still Waiting At The Altar [live, San Francisco, CA - Nov.
TTITLE13=13, 1980]
TTITLE14=Caribbean Wind [live, San Francisco, CA - Nov. 12, 1980]
TTITLE15=Every Grain Of Sand [live, Lakeland, FL - Nov. 21, 1981]
EXTD=
EXTT0=
EXTT1=
EXTT2=
EXTT3=
EXTT4=
EXTT5=
EXTT6=
EXTT7=
EXTT8=
EXTT9=
EXTT10=
EXTT11=
EXTT12=
EXTT13=
EXTT14=
EXTT15=
PLAYORDER=
